<svg id="Map" xmlns="http://www.w3.org/2000/svg" width="512" height="512" viewBox="0 0 512 512">
  <defs>
    <style>
      .cls-1 {
        fill: #7cc576;
      }

      .cls-1, .cls-10, .cls-11, .cls-2, .cls-3, .cls-4, .cls-5, .cls-6, .cls-7 {
        fill-rule: evenodd;
      }

      .cls-2, .cls-4 {
        fill: #fff568;
      }

      .cls-2 {
        stroke: #fff568;
        stroke-width: 30.71px;
      }

      .cls-3 {
        fill: #b7b7b7;
      }

      .cls-10, .cls-11, .cls-5, .cls-8, .cls-9 {
        stroke: #000;
      }

      .cls-5 {
        stroke-width: 1px;
      }

      .cls-6 {
        fill: #a6a6a6;
        stroke: #363636;
      }

      .cls-6, .cls-7 {
        stroke-width: 12px;
      }

      .cls-7 {
        fill: #cc6265;
        stroke: #a03f3f;
      }

      .cls-8 {
        fill: #c7b299;
      }

      .cls-11, .cls-8 {
        stroke-width: 4px;
      }

      .cls-10, .cls-9 {
        stroke-width: 2px;
      }
    </style>
  </defs>
  <path class="cls-1" d="M-104.886,772.208l-68.9,313.332,165.372,27.55,65.46-292.677Z"/>
  <path class="cls-2" d="M-15.31,1126.86l-158.481-30.99L-204.8,1219.83l144.7,41.31Z"/>
  <path class="cls-3" d="M-215.134,1250.81l130.919,37.88-62.014,103.3-34.452,103.29-82.686,27.55Z"/>
  <path class="cls-3" d="M-146.229,1488.4l79.241-185.94,330.743-20.66,220.5,89.53Z"/>
  <path class="cls-3" d="M-42.872,1264.59l57.421-137.73L70.822,830.743l141.255,44.762,41.343,382.2Z"/>
  <path class="cls-3" d="M253.42,889.277l261.838,75.751,10.336,392.522L280.982,1254.26Z"/>
  <path class="cls-3" d="M626-298L225.858-40.39l48.233,99.853L613-89Z"/>
  <path class="cls-3" d="M191.405-23.174L236.193,66.35,94.938,152.43,43.26,76.679Z"/>
  <path class="cls-3" d="M8.807,107.668l51.679,68.864L-56.653,248.84l-55.124-68.864Z"/>
  <path class="cls-3" d="M-149.674,207.521l48.233,58.535-82.686,41.319-27.562-58.535Z"/>
  <path class="cls-3" d="M-235.8,266.056L-60.1,551.843l-48.233,117.069-251.5-337.435Z"/>
  <path class="cls-3" d="M-18.755,579.388l-51.679,89.524L81.157,720.56l24.117-75.751Z"/>
  <path class="cls-3" d="M156.953,655.139L122.5,713.674l161.927,51.648,31.007-44.762Z"/>
  <path class="cls-3" d="M346.441,737.776L325.77,775.651l220.5,75.751,24.116-75.751Z"/>
  <path class="cls-3" d="M-287.484,1653.67l103.357-17.22-3.445,65.43-86.131,6.88Z"/>
  <path class="cls-3" d="M-284.039,1743.19l-6.89,196.27,93.021,6.88V1743.19h-86.131Z"/>
  <path class="cls-3" d="M-153.119,1636.45l3.445,61.98,134.364-24.1-13.781-58.53Z"/>
  <path class="cls-3" d="M15.7,1605.47l6.891,55.09,103.357-20.66-17.226-55.09Z"/>
  <path class="cls-3" d="M156.953,1584.81l10.335,44.76,93.022-17.22-10.336-55.09Z"/>
  <path class="cls-4" d="M291.317,1550.37l10.336,44.77H549.711l3.445-82.64Z"/>
  <path class="cls-4" d="M429.127,1636.45l72.35-3.44,27.562,82.64-99.912,27.54V1636.45Z"/>
  <path class="cls-4" d="M436.018,1781.07h96.467l3.445,134.28-103.358,13.78Z"/>
  <path class="cls-4" d="M411.9,25.031L621-32l-9,289L432.572,238.51Z"/>
  <path class="cls-3" d="M429.127,279.829L613,301l11,144L432.572,434.773Z"/>
  <path class="cls-3" d="M439.463,472.649L606,478V633L449.8,613.82Z"/>
  <path class="cls-3" d="M446.353,658.582l72.351,10.33v65.421L432.572,724Z"/>
  <path class="cls-3" d="M-673.352-308.96l117.139,192.819,158.481-65.421L-507.98-364.052Z"/>
  <path class="cls-3" d="M-538.987-81.708l148.146-82.637L-311.6-30.06l-137.81,106.74Z"/>
  <path class="cls-3" d="M-432.184,111.111l313.517-251.354,89.576,92.967L-363.28,221.294Z"/>
  <path class="cls-3" d="M-60.1-167.789l68.9,92.967L432.572-360.609,298.208-419.143Z"/>
  <path class="cls-3" d="M-435.63-326.177l93.022,168.718,223.941-182.49Z"/>
  <path class="cls-3" d="M-752.592-140.243l62.014,123.956L-773.264,38.8Z"/>
  <path class="cls-3" d="M-673.352,18.145l-93.021,58.535v92.967l227.386,68.864Z"/>
  <path class="cls-3" d="M-766.373,297.045l248.057,65.421L-563.1,414.114l-199.824-27.546Z"/>
  <path class="cls-3" d="M-483.863,386.568l-44.788,27.546,62.014,96.41,65.46-6.886Z"/>
  <path class="cls-3" d="M-449.411,538.07l58.57-6.887,137.809,172.161-110.248-6.886Z"/>
  <path class="cls-3" d="M-432.184,644.809l13.781,48.205H-601l-13.781-48.205h182.6Z"/>
  <path class="cls-3" d="M-652.68,648.253l10.335,30.988h-86.131l-3.445-44.761Z"/>
  <path class="cls-3" d="M-680.242,493.308l13.781,44.762,89.576,6.886-6.89-72.307Z"/>
  <path class="cls-3" d="M-759.483,789.424H-601v44.762l-168.817,10.33Z"/>
  <path class="cls-3" d="M-573.44,796.311l-3.445,137.728,55.124,6.887v-151.5Z"/>
  <path class="cls-3" d="M-476.973,796.311l-10.335,51.648,248.057-6.886L-235.8,779.1Z"/>
  <path class="cls-3" d="M-308.156,872.061l51.679,6.887-75.8,306.442-62.015-3.44Z"/>
  <path class="cls-3" d="M-397.732,1212.94l65.46,3.44-68.905,289.23-62.015-24.1Z"/>
  <path class="cls-3" d="M-449.411,892.721l-37.9,106.739,86.131,20.66,44.788-137.729Z"/>
  <path class="cls-3" d="M-749.147,868.618h65.46l20.671,354.652H-745.7Z"/>
  <path class="cls-3" d="M-749.147,1285.25h82.686l-3.445,144.61-89.577-10.33Z"/>
  <path class="cls-4" d="M-635.454,1295.58l175.708,41.32L-494.2,1453.96l-155.036-27.54Z"/>
  <path class="cls-4" d="M-645.79,1006.35l251.5,65.42-58.569,223.81L-638.9,1250.81Z"/>
  <path class="cls-4" d="M308.543,1650.23l89.577-6.89,3.445,272.01-86.131,10.33Z"/>
  <path class="cls-4" d="M-759.483,1515.94s4.126,1.55,10.949,4.11c32.614,12.22,126.861,47.54,126.861,47.54l-27.562,55.09-106.8-17.21Z"/>
  <path class="cls-3" d="M-587.221,1577.92l-27.562,48.21,230.832,89.52v-55.09Z"/>
  <path class="cls-3" d="M-466.637,1715.65l82.686,37.87v172.16l-72.35,6.89Z"/>
  <path class="cls-3" d="M-742.257,1643.34H-638.9l148.145,82.64,3.446,72.31-299.737-34.44Z"/>
  <path class="cls-3" d="M-762.928,1801.73l258.393,20.66,31.008,106.74-282.511,10.33Z"/>
  <path class="cls-3" d="M-166.9,1722.53l96.467-6.88,6.89,227.25-120.584,6.89Z"/>
  <path class="cls-1" d="M-32.536,1708.76l296.291-61.98,20.672,144.62-316.963,34.43V1708.76Z"/>
  <path class="cls-1" d="M-328.827-136.8l223.941-203.149,223.941-27.546L-280.594-57.606Z"/>
  <path class="cls-1" d="M-153.119,324.591L374,59.463l34.453,557.8L374,699.9-32.536,538.07Z"/>
  <path class="cls-3" d="M-742.257,403.784L-680.242,421l-24.117,68.864,41.343,113.626-86.131,17.216Z"/>
  <path class="cls-3" d="M-663.016,868.618l65.46-6.886,6.89,120.512-62.014,6.887Z"/>
  <path class="cls-3" d="M-559.659,958.142l62.015,6.886-10.336,51.652-58.569-13.78Z"/>
  <path class="cls-3" d="M-32.536,1946.34v-92.96l303.182-34.44v134.29Z"/>
  <path class="cls-5" d="M-787.045,1416.09L-349.5,1557.26l881.984-151.5-3.446,82.64-830.3,151.5-3.445,278.9-55.124,17.21-3.446-289.23-416.874-165.27ZM-917.964,775.651l716.611-6.886-179.153,788.5,48.234,51.65,34.452-13.77,179.153-843.591,723.5,203.15,10.335-55.092L-115.222,682.685-380.506,331.477,639-348l43-144L-387.4,262.613-711.249-336.506l-86.132,55.091,327.3,561.244-316.963-92.967-13.781,72.307,313.518,89.524L-204.8,720.56l-702.83,6.887Z"/>
  <path class="cls-6" d="M253.839,363.443c53.7,0,97.225,12.437,97.225,27.778S307.535,419,253.839,419s-97.225-12.437-97.225-27.779S200.143,363.443,253.839,363.443Z"/>
  <path class="cls-7" d="M251.855,392.544S350.673,251.023,352.386,191.48,296.367,92.271,250.532,92.271,150.857,123.258,150,187.512,251.855,392.544,251.855,392.544Zm-1.323-259.266a58.2,58.2,0,1,1-58.2,58.2A58.2,58.2,0,0,1,250.532,133.278Z"/>
  <circle class="cls-8" cx="251.188" cy="192.141" r="61.531"/>
  <circle class="cls-9" cx="227.969" cy="192.016" r="5.938"/>
  <path id="Ellipse_2_copy" data-name="Ellipse 2 copy" class="cls-10" d="M273.166,180.71a5.953,5.953,0,1,1-5.122,6.68A5.952,5.952,0,0,1,273.166,180.71Z"/>
  <path class="cls-10" d="M222.019,208.667s7.264,19.055,32.758,15.691,27.74-22.339,27.74-22.339,2,26.611-25.218,31.346S222.019,208.667,222.019,208.667Z"/>
  <path class="cls-11" d="M205.557,183.544c6.346-.305,10.15-12.742,16.516-14.912,7.137-4.4-2.116,13.754,12.585,12.266,8.666-.877,9.885-12.03,17.924-13.623s0.886,7.847,15.146,8.332c4.812,0.164,5.381-6.9,13.228-7.937s13.727,9.185,17.2,9.26S305,167,305,167s-16.329-38.3-61-34-51.4,44.857-51.4,44.857S199.211,183.849,205.557,183.544Z"/>
</svg>
