<svg id="Face" xmlns="http://www.w3.org/2000/svg" width="170" height="270" viewBox="0 0 170 270">
  <defs>
    <style>
      .cls-1 {
        fill: #a6a6a6;
        stroke: #363636;
      }

      .cls-1, .cls-2 {
        stroke-width: 12px;
      }

      .cls-2 {
        fill: #cc6265;
        stroke: #a03f3f;
      }

      .cls-2, .cls-3, .cls-4, .cls-6 {
        fill-rule: evenodd;
      }

      .cls-3 {
        fill: #c7b299;
      }

      .cls-3, .cls-4, .cls-5, .cls-6 {
        stroke: #000;
      }

      .cls-3, .cls-6 {
        stroke-width: 4px;
      }

      .cls-4, .cls-5 {
        stroke-width: 2px;
      }
    </style>
  </defs>
  <ellipse class="cls-1" cx="86.531" cy="238.031" rx="73.5" ry="21"/>
  <path class="cls-2" d="M85.025,239.02S159.754,132,161.049,86.97,118.686,11.946,84.025,11.946,8.648,35.379,8,83.969,85.025,239.02,85.025,239.02ZM84.016,42.969A44.016,44.016,0,1,1,40,86.984,44.015,44.015,0,0,1,84.016,42.969Z"/>
  <path class="cls-3" d="M78.44,41.355a46.515,46.515,0,1,1-40.031,52.2A46.515,46.515,0,0,1,78.44,41.355Z"/>
  <path class="cls-4" d="M66.431,83.405a4.029,4.029,0,1,1-3.939,4.556A4.274,4.274,0,0,1,66.431,83.405Z"/>
  <circle id="Ellipse_2_copy" data-name="Ellipse 2 copy" class="cls-5" cx="101.734" cy="83.281" r="4.484"/>
  <path class="cls-4" d="M62.462,99.967s5.493,14.41,24.772,11.866S108.213,94.94,108.213,94.94s1.514,20.123-19.071,23.705S62.462,99.967,62.462,99.967Z"/>
  <path class="cls-6" d="M50.014,80.969c4.8-.231,7.676-9.636,12.49-11.277,5.4-3.328-1.6,10.4,9.517,9.276,6.553-.663,7.475-9.1,13.554-10.3s0.67,5.935,11.454,6.3c3.638,0.124,4.069-5.219,10-6s10.381,6.946,13,7,5.179-7.509,5.179-7.509S112.866,39.5,79.085,42.746,40.217,76.668,40.217,76.668,45.214,81.2,50.014,80.969Z"/>
</svg>
